<svg width="16" height="16" viewBox="0 0 48 48" fill="none" xmlns="http://www.w3.org/2000/svg"><rect x="4" y="4" width="40" height="40" rx="8" ry="8" fill="
#003087"/><g transform="translate(13, 6) scale(0.9)"><path d="M20.3305 14.0977C20.3082 14.24 20.2828 14.3856 20.2542 14.5351C19.2704 19.5861 15.9046 21.331 11.606 21.331H9.4173C8.8916 21.331 8.4486 21.7127 8.3667 22.2313L7.2461 29.3381L6.9288 31.3527C6.8755 31.693 7.1379 32 7.4815 32H11.3634C11.8231 32 12.2136 31.666 12.286 31.2127L12.3241 31.0154L13.055 26.3772L13.1019 26.1227C13.1735 25.6678 13.5648 25.3338 14.0245 25.3338H14.6051C18.3661 25.3338 21.3103 23.8068 22.1708 19.388C22.5303 17.5421 22.3442 16.0008 21.393 14.9168C21.1051 14.59 20.748 14.3188 20.3305 14.0977Z" fill="white" /><path d="M19.3009 13.6871C19.1506 13.6434 18.9955 13.6036 18.8364 13.5678C18.6766 13.5328 18.5127 13.5018 18.3441 13.4748C17.754 13.3793 17.1074 13.334 16.4147 13.334H10.5676C10.4237 13.334 10.2869 13.3666 10.1644 13.4254C9.8948 13.5551 9.6944 13.8104 9.6459 14.1229L8.402 22.0013L8.3662 22.2311C8.4481 21.7126 8.8911 21.3308 9.4168 21.3308H11.6055C15.9041 21.3308 19.2699 19.5851 20.2537 14.5349C20.2831 14.3854 20.3078 14.2398 20.33 14.0975C20.0811 13.9655 19.8115 13.8525 19.5212 13.7563C19.4496 13.7324 19.3757 13.7094 19.3009 13.6871Z" fill="white" fill-opacity="0.85"/><path d="M9.6461 14.1231C9.6946 13.8105 9.895 13.5552 10.1646 13.4264C10.2879 13.3675 10.4239 13.3349 10.5678 13.3349H16.4149C17.1077 13.3349 17.7542 13.3803 18.3444 13.4757C18.513 13.5027 18.6768 13.5338 18.8367 13.5687C18.9957 13.6045 19.1508 13.6443 19.3011 13.688C19.3759 13.7103 19.4498 13.7334 19.5222 13.7564C19.8125 13.8527 20.0821 13.9664 20.331 14.0976C20.6237 12.231 20.3287 10.9601 19.3194 9.8093C18.2068 8.5424 16.1986 8 13.629 8H6.169C5.6441 8 5.1963 8.3817 5.1152 8.9011L2.0079 28.5969C1.9467 28.9866 2.2473 29.3381 2.6402 29.3381H7.2458L8.4022 22.0014L9.6461 14.1231Z" fill="white" fill-opacity="0.7"/></g></svg>